HIERARCHY
ROOT Hips
{
	OFFSET 0.000000 0.000000 0.000000
	CHANNELS 6 Xposition Yposition Zposition Zrotation Yrotation Xrotation 
	JOINT LHipJoint
	{
		OFFSET 0.000000 0.000000 0.000000
		CHANNELS 3 Zrotation Yrotation Xrotation
		JOINT LeftUpLeg
		{
			OFFSET 1.363060 -1.794630 0.839290
			CHANNELS 3 Zrotation Yrotation Xrotation
			JOINT LeftLeg
			{
				OFFSET 2.448110 -6.726130 0.000000
				CHANNELS 3 Zrotation Yrotation Xrotation
				JOINT LeftFoot
				{
					OFFSET 2.562200 -7.039590 0.000000
					CHANNELS 3 Zrotation Yrotation Xrotation
					JOINT LeftToeBase
					{
						OFFSET 0.157640 -0.433110 2.322550
						CHANNELS 3 Zrotation Yrotation Xrotation
						End Site
						{
							OFFSET 0.000000 0.000000 0.000000
						}
					}
				}
			}
		}
	}
	JOINT RHipJoint
	{
		OFFSET 0.000000 0.000000 0.000000
		CHANNELS 3 Zrotation Yrotation Xrotation
		JOINT RightUpLeg
		{
			OFFSET -1.305520 -1.794630 0.839290
			CHANNELS 3 Zrotation Yrotation Xrotation
			JOINT RightLeg
			{
				OFFSET -2.542530 -6.985550 0.000000
				CHANNELS 3 Zrotation Yrotation Xrotation
				JOINT RightFoot
				{
					OFFSET -2.568260 -7.056230 0.000000
					CHANNELS 3 Zrotation Yrotation Xrotation
					JOINT RightToeBase
					{
						OFFSET -0.164730 -0.452590 2.363150
						CHANNELS 3 Zrotation Yrotation Xrotation
						End Site
						{
							OFFSET 0.000000 0.000000 0.000000
						}
					}
				}
			}
		}
	}
	JOINT LowerBack
	{
		OFFSET 0.000000 0.000000 0.000000
		CHANNELS 3 Zrotation Yrotation Xrotation
		JOINT Spine
		{
			OFFSET 0.028270 2.035590 -0.193380
			CHANNELS 3 Zrotation Yrotation Xrotation
			JOINT Spine1
			{
				OFFSET 0.056720 2.048850 -0.042750
				CHANNELS 3 Zrotation Yrotation Xrotation
				JOINT Neck
				{
					OFFSET 0.000000 0.000000 0.000000
					CHANNELS 3 Zrotation Yrotation Xrotation
					JOINT Neck1
					{
						OFFSET -0.054170 1.746240 0.172020
						CHANNELS 3 Zrotation Yrotation Xrotation
						JOINT Head
						{
							OFFSET 0.104070 1.761360 -0.123970
							CHANNELS 3 Zrotation Yrotation Xrotation
							End Site
							{
								OFFSET 0.000000 0.000000 0.000000
							}
						}
					}
				}
				JOINT LeftShoulder
				{
					OFFSET 0.000000 0.000000 0.000000
					CHANNELS 3 Zrotation Yrotation Xrotation
					JOINT LeftArm
					{
						OFFSET 3.362410 1.200890 -0.311210
						CHANNELS 3 Zrotation Yrotation Xrotation
						JOINT LeftForeArm
						{
							OFFSET 4.983000 -0.000000 -0.000000
							CHANNELS 3 Zrotation Yrotation Xrotation
							JOINT LeftHand
							{
								OFFSET 3.483560 -0.000000 -0.000000
								CHANNELS 3 Zrotation Yrotation Xrotation
								JOINT LeftFingerBase
								{
									OFFSET 0.000000 0.000000 0.000000
									CHANNELS 3 Zrotation Yrotation Xrotation
									JOINT LeftHandIndex1
									{
										OFFSET 0.715260 -0.000000 -0.000000
										CHANNELS 3 Zrotation Yrotation Xrotation
										End Site
										{
											OFFSET 0.000000 0.000000 0.000000
										}
									}
								}
								JOINT LThumb
								{
									OFFSET 0.000000 0.000000 0.000000
									CHANNELS 3 Zrotation Yrotation Xrotation
									End Site
									{
										OFFSET 0.000000 0.000000 0.000000
									}
								}
							}
						}
					}
				}
				JOINT RightShoulder
				{
					OFFSET 0.000000 0.000000 0.000000
					CHANNELS 3 Zrotation Yrotation Xrotation
					JOINT RightArm
					{
						OFFSET -3.136600 1.374050 -0.404650
						CHANNELS 3 Zrotation Yrotation Xrotation
						JOINT RightForeArm
						{
							OFFSET -5.241900 -0.000000 -0.000000
							CHANNELS 3 Zrotation Yrotation Xrotation
							JOINT RightHand
							{
								OFFSET -3.444170 -0.000000 -0.000000
								CHANNELS 3 Zrotation Yrotation Xrotation
								JOINT RightFingerBase
								{
									OFFSET 0.000000 0.000000 0.000000
									CHANNELS 3 Zrotation Yrotation Xrotation
									JOINT RightHandIndex1
									{
										OFFSET -0.622530 -0.000000 -0.000000
										CHANNELS 3 Zrotation Yrotation Xrotation
										End Site
										{
											OFFSET 0.000000 0.000000 0.000000
										}
									}
								}
								JOINT RThumb
								{
									OFFSET 0.000000 0.000000 0.000000
									CHANNELS 3 Zrotation Yrotation Xrotation
									End Site
									{
										OFFSET 0.000000 0.000000 0.000000
									}
								}
							}
						}
					}
				}
			}
		}
	}
}
MOTION
Frames: 9
Frame Time: 0.008333
31.898836 17.757732 2.651107 -88.305778 -86.967044 95.823664 -1.777477 -1.478486 -0.907748 -17.839781 -5.349896 -9.371550 -0.519887 4.670675 11.751657 0.332591 1.042333 4.964403 0.144500 2.449900 6.750800 0.829175 1.483100 -2.059800 16.977090 1.216668 -26.674858 -11.533970 -18.914989 64.130056 3.376056 -20.455634 3.928661 -0.239300 -3.148000 8.691000 1.055000 -0.923038 2.237086 1.073433 -0.971170 -4.289965 4.675645 -0.662920 0.575233 -3.668698 -1.763387 -10.650257 3.499577 -2.390558 10.975788 1.599100 -1.301300 7.334300 5.197499 3.509245 0.221269 -91.484206 -13.691417 3.142450 47.241672 -55.335171 -21.514836 -2.585403 0.702428 -46.784771 -11.408484 28.389409 -4.502500 -7.125000 0.000000 0.000000 -39.815500 51.545600 -7.408400 -2.823371 -4.034227 -1.593610 80.592307 11.550917 16.878276 -59.656346 58.125122 -36.869681 -0.052356 -0.009064 -38.062725 2.221933 -24.898483 -0.956500 7.125000 0.000000 0.000000 32.020200 -51.900900 -5.947200 
31.787064 17.759233 2.660413 -78.827341 -86.969319 86.286931 -1.811550 -1.544139 -0.907845 -17.989790 -5.444949 -8.843633 -0.511341 4.662043 11.787763 0.363825 0.798985 4.661343 0.143800 2.443800 6.733800 0.785065 1.407454 -2.045420 16.897107 1.434408 -27.519728 -11.305481 -18.851399 63.511946 3.355718 -20.040457 2.974987 -0.221100 -3.026800 8.353300 0.931932 -1.073300 2.323792 1.131950 -1.156000 -4.327232 4.858828 -0.768063 0.417343 -3.648767 -1.684006 -10.286602 3.444269 -2.290780 10.832365 1.577000 -1.260900 7.198000 5.201261 3.496346 0.224787 -91.619474 -14.066311 4.011170 47.944000 -55.662892 -21.958066 -2.562845 0.691974 -46.354190 -11.344983 28.039135 -4.419000 -7.125000 0.000000 0.000000 -39.517900 51.304900 -7.077000 -2.798466 -4.062569 -1.594160 80.462028 11.417237 16.580446 -60.570787 58.364056 -37.645451 -0.050312 -0.007434 -38.207893 2.175913 -24.755380 -0.930900 7.125000 0.000000 0.000000 31.882000 -51.787200 -5.822000 
31.676192 17.759733 2.670219 -69.584999 -86.985690 76.965869 -1.867428 -1.608202 -0.903379 -18.231375 -5.523338 -8.262746 -0.509029 4.630010 11.750096 0.406891 0.505203 4.415534 0.149300 2.489600 6.860900 0.720266 1.333779 -2.038090 16.735471 1.662641 -28.272286 -11.024207 -18.756463 62.727529 3.351952 -19.678500 1.818632 -0.173600 -2.683900 7.399900 0.745776 -1.200990 2.546490 1.164656 -1.303392 -4.347144 4.994582 -0.855687 0.263939 -3.603492 -1.622583 -10.298050 3.414136 -2.211994 10.799802 1.557400 -1.222700 7.191300 5.192708 3.480513 0.219972 -91.683236 -14.513041 4.880097 48.731857 -56.004108 -22.459243 -2.534728 0.654391 -45.914975 -11.613457 27.579730 -4.462200 -7.125000 0.000000 0.000000 -39.435100 50.944100 -6.668700 -2.778194 -4.088091 -1.599060 80.383089 11.404975 16.188047 -61.488427 58.591715 -38.427893 -0.043521 -0.005588 -38.308031 2.420531 -24.589219 -1.024200 7.125000 0.000000 0.000000 31.986800 -51.603600 -5.690800 
31.566422 17.758132 2.678024 -63.141258 -86.989112 70.510483 -1.919368 -1.649065 -0.893716 -18.424003 -5.483967 -7.807339 -0.508635 4.601879 11.699772 0.440094 0.275252 4.173719 0.145800 2.460400 6.779700 0.657985 1.291560 -2.050889 16.599571 1.954326 -29.007588 -10.666320 -18.607002 61.658915 3.347131 -19.453021 1.070821 -0.173300 -2.681800 7.394200 0.556380 -1.298361 2.619889 1.196145 -1.417990 -4.328962 5.130727 -0.922331 0.285825 -3.620837 -1.571509 -10.340441 3.459695 -2.131968 10.686527 1.579100 -1.179100 7.153800 5.181748 3.492466 0.213674 -91.694923 -15.161327 5.623784 49.354133 -56.272719 -22.875038 -2.534498 0.629723 -45.109562 -12.096261 27.501945 -4.647300 -7.125000 0.000000 0.000000 -39.780600 50.845000 -6.637300 -2.764489 -4.111656 -1.594190 80.292691 11.538774 15.813495 -62.416625 58.819358 -39.216781 -0.044735 -0.005609 -38.297123 2.235460 -24.486349 -0.943800 7.125000 0.000000 0.000000 31.754500 -51.547000 -5.594700 
31.456451 17.757232 2.686329 -56.077384 -86.954341 63.415542 -1.990588 -1.689003 -0.876686 -18.619633 -5.471054 -7.334736 -0.507492 4.580504 11.664621 0.481423 0.001295 3.929408 0.147200 2.472500 6.813400 0.576847 1.246763 -2.062439 16.444697 2.228341 -29.712974 -10.324213 -18.454119 60.635555 3.343296 -19.224550 0.201071 -0.167600 -2.637500 7.271200 0.345418 -1.400334 2.738243 1.229184 -1.536550 -4.335142 5.269403 -0.988422 0.215736 -3.586613 -1.506527 -10.281285 3.451662 -2.046749 10.593818 1.570300 -1.136400 7.103900 5.173866 3.493738 0.209686 -91.705564 -15.673118 6.448344 50.022211 -56.556534 -23.311152 -2.522955 0.615022 -44.274064 -12.348139 27.268008 -4.709700 -7.125000 0.000000 0.000000 -39.827800 50.656700 -6.441200 -2.746120 -4.132219 -1.592647 80.204185 11.582838 15.430997 -63.330340 59.034849 -39.995474 -0.043644 -0.004823 -38.294517 2.197903 -24.359172 -0.923100 7.125000 0.000000 0.000000 31.637300 -51.444700 -5.485400 
31.346780 17.755531 2.694134 -49.685641 -86.909525 57.007059 -2.065591 -1.716744 -0.853794 -18.812462 -5.443417 -6.895827 -0.506982 4.564119 11.632700 0.525204 -0.282674 3.692988 0.149100 2.488600 6.858100 0.492924 1.214681 -2.080008 16.281656 2.506679 -30.373897 -9.947928 -18.267743 59.475001 3.357461 -19.124609 -0.558918 -0.177800 -2.716100 7.489300 0.123675 -1.489715 2.854874 1.258325 -1.640380 -4.342358 5.399365 -1.043895 0.145652 -3.534033 -1.439435 -10.242626 3.438413 -1.961984 10.513414 1.555400 -1.093000 7.063100 5.165047 3.496984 0.204792 -91.676585 -16.177334 7.286355 50.657672 -56.822862 -23.727519 -2.513736 0.610068 -43.250805 -12.560044 27.060170 -4.756900 -7.125000 0.000000 0.000000 -39.856400 50.493400 -6.267700 -2.727844 -4.149291 -1.591129 80.123859 11.643702 15.031799 -64.224015 59.238532 -40.757537 -0.043600 -0.004476 -38.223982 2.136423 -24.250648 -0.893900 7.125000 0.000000 0.000000 31.512300 -51.362200 -5.391600 
31.237410 17.753329 2.701539 -44.063136 -86.852640 51.387303 -2.137712 -1.731515 -0.827445 -18.993452 -5.410439 -6.491049 -0.506753 4.552634 11.604851 0.569148 -0.564878 3.463226 0.151000 2.504300 6.901500 0.412758 1.197114 -2.103598 16.119396 2.787555 -30.992547 -9.536602 -18.046244 58.178635 3.382012 -19.095370 -1.275721 -0.184600 -2.767200 7.631400 -0.092960 -1.566709 2.943644 1.284818 -1.730676 -4.343472 5.518133 -1.089941 0.107092 -3.466944 -1.374024 -10.231606 3.422407 -1.881374 10.439456 1.536200 -1.050500 7.029500 5.155559 3.505078 0.199330 -91.606863 -16.699581 8.136584 51.240513 -57.066253 -24.111325 -2.507252 0.617044 -42.032667 -12.716807 26.887133 -4.784400 -7.125000 0.000000 0.000000 -39.859200 50.363000 -6.124500 -2.710614 -4.164160 -1.588558 80.056720 11.748246 14.615171 -65.074117 59.426602 -41.482713 -0.044771 -0.004870 -38.065963 2.049491 -24.170231 -0.855900 7.125000 0.000000 0.000000 31.384000 -51.307600 -5.320700 
31.128240 17.750527 2.708744 -39.100467 -86.782776 46.444634 -2.204349 -1.734340 -0.797796 -19.164332 -5.387664 -6.112956 -0.506529 4.546356 11.584445 0.611894 -0.838796 3.235249 0.153100 2.521400 6.949000 0.339972 1.191722 -2.129833 15.959221 3.064066 -31.563556 -9.090176 -17.786893 56.741715 3.416480 -19.131954 -1.942823 -0.185600 -2.774600 7.651700 -0.299046 -1.633344 3.024080 1.309554 -1.810033 -4.348375 5.628534 -1.127638 0.063034 -3.391960 -1.309154 -10.227752 3.406702 -1.803750 10.380277 1.515300 -1.009000 7.003600 5.145563 3.514200 0.193487 -91.499112 -17.194979 9.012541 51.783514 -57.293083 -24.468258 -2.501693 0.636131 -40.622234 -12.796706 26.730115 -4.780500 -7.125000 0.000000 0.000000 -39.805900 50.254100 -5.993600 -2.693490 -4.175456 -1.586419 79.998189 11.855424 14.186528 -65.883604 59.600262 -42.173051 -0.047055 -0.005961 -37.799509 1.953905 -24.121580 -0.816300 7.125000 0.000000 0.000000 31.269600 -51.281500 -5.276300 
31.019269 17.747325 2.715448 -34.741168 -86.706396 42.123952 -2.262996 -1.727709 -0.767082 -19.329961 -5.374377 -5.756711 -0.506514 4.542190 11.564737 0.651908 -1.096364 3.009295 0.154300 2.531400 6.976800 0.276936 1.196703 -2.157963 15.796844 3.334432 -32.090169 -8.611763 -17.488996 55.171688 3.450969 -19.187246 -2.550753 -0.176400 -2.705700 7.460500 -0.490619 -1.691571 3.094192 1.331099 -1.880726 -4.352403 5.725542 -1.159257 0.028674 -3.312383 -1.247460 -10.262644 3.393583 -1.730964 10.338860 1.494200 -0.969000 6.992900 5.134451 3.524873 0.186523 -91.349533 -17.684050 9.909621 52.282424 -57.505807 -24.797933 -2.492244 0.689074 -39.046664 -12.461991 26.621857 -4.610700 -7.125000 0.000000 0.000000 -39.435800 50.229100 -5.892700 -2.677530 -4.184374 -1.584639 79.954020 11.986279 13.753354 -66.635581 59.756684 -42.813283 -0.050958 -0.007991 -37.399451 1.831000 -24.113433 -0.767600 7.125000 0.000000 0.000000 31.157800 -51.294100 -5.264400 
